<?xml version="1.0" standalone="no"?>
<!DOCTYPE svg PUBLIC "-//W3C//DTD SVG 20010904//EN"
 "http://www.w3.org/TR/2001/REC-SVG-20010904/DTD/svg10.dtd">
<svg version="1.0" xmlns="http://www.w3.org/2000/svg"
 width="64.000000pt" height="64.000000pt" viewBox="0 0 64.000000 64.000000"
 preserveAspectRatio="xMidYMid meet">

<g transform="translate(0.000000,64.000000) scale(0.100000,-0.100000)"
fill="#000000" stroke="none">
<path d="M271 524 c-38 -11 -57 -12 -64 -5 -6 6 -19 11 -30 11 -14 0 -17 -5
-12 -19 4 -14 0 -23 -14 -30 -28 -15 -25 -65 5 -81 12 -7 27 -9 33 -6 6 4 11
0 11 -10 0 -23 20 -4 24 22 2 13 15 21 42 26 21 5 54 11 73 14 49 10 34 -8
-53 -63 -39 -25 -89 -62 -111 -82 -23 -20 -60 -47 -83 -61 -23 -14 -42 -29
-42 -34 0 -5 -6 -14 -14 -20 -7 -6 -16 -23 -20 -38 -5 -21 -2 -30 15 -39 29
-15 107 -4 132 19 17 15 44 17 229 17 l209 0 16 33 c9 20 12 37 7 42 -8 8
-163 17 -316 19 -27 1 -48 5 -48 10 0 4 30 28 68 52 37 24 93 67 125 97 32 29
62 50 67 47 6 -3 10 -1 10 4 0 6 11 11 24 11 16 0 25 7 29 23 2 12 8 30 12 40
7 16 -3 17 -131 16 -88 0 -159 -6 -193 -15z"/>
</g>
</svg>
